<svg id="Capa_1" enable-background="new 0 0 512.061 512.061" height="512" viewBox="0 0 512.061 512.061" width="512" xmlns="http://www.w3.org/2000/svg"><g><g><path d="m491.865 132.587-215.01-88.494c-7.421-3.052-15.42-3.691-20.824-3.691s-13.404.64-20.828 3.693l-215.008 88.492c-15.694 6.458-23.864 24.155-18.601 40.288l38.085 116.764c2.013 6.172 7.769 10.349 14.261 10.349h404.182c6.492 0 12.248-4.177 14.261-10.349l38.086-116.765c5.261-16.133-2.911-33.83-18.604-40.287z" fill="#79d6de"/><path d="m472.382 289.639 38.086-116.765c5.262-16.134-2.91-33.83-18.603-40.287l-215.01-88.494c-7.421-3.052-15.42-3.691-20.824-3.691-.001 0-.001 0-.001 0l-.001 259.586h202.092c6.492 0 12.248-4.177 14.261-10.349z" fill="#60a9b0"/><path d="m458.121 319.035h-404.181c-8.284 0-15 6.716-15 15 0 35.057 0 71.308 30.361 97.978 31.214 27.419 88.804 39.647 186.73 39.647s155.516-12.228 186.729-39.647c30.361-26.671 30.361-62.922 30.361-97.978 0-8.285-6.716-15-15-15z" fill="#549499"/><path d="m256.031 471.66c97.926 0 155.516-12.228 186.729-39.647 30.361-26.671 30.361-62.922 30.361-97.978 0-8.284-6.716-15-15-15h-202.092v152.625z" fill="#427579"/><path d="m330.431 146.864c-3.249-5.806-32.941-56.724-74.399-56.724-41.46 0-71.152 50.917-74.402 56.724-2.066 3.693-2.477 8.088-1.13 12.1.298.886 7.411 21.919 18.995 43.257 17.797 32.781 36.291 48.717 56.537 48.717s38.738-15.936 56.535-48.718c11.584-21.337 18.697-42.371 18.994-43.256 1.347-4.012.937-8.407-1.13-12.1z" fill="#f2d231"/><path d="m458.121 269.988h-404.181c-8.284 0-15 6.716-15 15v49.047c0 8.284 6.716 15 15 15h404.182c8.284 0 15-6.716 15-15v-49.047c-.001-8.284-6.717-15-15.001-15z" fill="#bce9f8"/></g><path d="m312.567 202.219c11.584-21.337 18.697-42.371 18.994-43.256 1.348-4.012.938-8.406-1.13-12.1-3.249-5.806-32.941-56.724-74.399-56.724h-.002v160.797h.002c20.246.001 38.738-15.935 56.535-48.717z" fill="#e79d26"/><path d="m458.121 269.988h-202.092v79.047h202.092c8.284 0 15-6.716 15-15v-49.047c0-8.284-6.716-15-15-15z" fill="#9ce0f6"/></g></svg>